# Blender v2.78 (sub 0) OBJ File: '16.blend'
# www.blender.org
mtllib Hoverboard_01.mtl
g Circle
v 4.335435 1.328342 -1.309309
v 4.335435 2.254163 -0.925821
v 4.335435 2.637651 0.000000
v 4.335435 2.254163 0.925821
v 4.335435 1.328342 1.309309
v 4.335435 0.402520 0.925821
v 4.335435 0.019033 -0.000000
v 4.335435 0.402520 -0.925821
v 5.089231 1.328342 -1.309309
v 5.089231 2.254163 -0.925821
v 5.089231 2.637651 0.000000
v 5.089231 2.254163 0.925821
v 5.089231 1.328342 1.309309
v 5.089231 0.402520 0.925821
v 5.089231 0.019033 -0.000000
v 5.089231 0.402520 -0.925821
v 4.351016 1.328342 -0.865272
v 4.351016 1.940181 -0.611840
v 4.351016 2.193614 0.000000
v 4.351016 1.940181 0.611840
v 4.351016 1.328342 0.865272
v 4.351016 0.716502 0.611839
v 4.351016 0.463070 -0.000000
v 4.351016 0.716502 -0.611840
v 5.073650 1.328342 -0.865272
v 5.073650 1.940181 -0.611840
v 5.073650 2.193614 0.000000
v 5.073650 1.940181 0.611840
v 5.073650 1.328342 0.865272
v 5.073650 0.716502 0.611839
v 5.073650 0.463070 -0.000000
v 5.073650 0.716502 -0.611840
v 4.880129 1.328342 -0.865272
v 4.880129 1.940181 -0.611840
v 4.880129 2.193614 0.000000
v 4.880129 1.940181 0.611840
v 4.880129 1.328342 0.865272
v 4.880129 0.716502 0.611839
v 4.880129 0.463070 -0.000000
v 4.880129 0.716502 -0.611840
v 1.276410 1.328342 -1.183215
v 1.276410 1.328342 1.183215
v 1.276410 0.491682 0.836659
v 1.276410 0.328123 -0.000000
v 1.276410 0.491682 -0.836659
v 3.351069 1.328342 -1.183215
v 3.351069 1.328342 1.183215
v 3.351069 0.491682 0.836659
v 3.351069 0.145126 -0.000000
v 3.351069 0.491682 -0.836659
v 3.573572 1.328342 -1.183215
v 3.573572 2.165001 -0.836660
v 3.573572 2.511557 0.000000
v 3.573572 2.165001 0.836660
v 3.573572 1.328342 1.183215
v 3.617095 0.491682 0.836659
v 3.617095 0.145126 -0.000000
v 3.617095 0.491682 -0.836659
v 4.313730 1.328342 -1.183215
v 4.313730 2.165001 -0.836660
v 4.313730 2.511557 0.000000
v 4.313730 2.165001 0.836660
v 4.313730 1.328342 1.183215
v 4.270207 0.491682 0.836659
v 4.270207 0.145126 -0.000000
v 4.270207 0.491682 -0.836659
v 0.490099 1.328342 -0.663333
v 0.490099 1.328342 0.663333
v 0.490099 0.810513 0.469047
v 0.490099 0.710699 -0.000000
v 0.490099 0.810513 -0.469047
v 0.239664 1.328342 -0.568796
v 0.239664 1.328342 0.568796
v 0.239664 1.008841 0.402200
v 0.239664 0.909014 -0.000000
v 0.239664 1.008841 -0.402200
v 3.573572 2.254183 -0.938170
v 3.573572 1.329964 -1.326773
v 3.573572 2.665030 0.000000
v 3.573572 2.254183 0.938170
v 3.573572 1.329964 1.326773
v 4.313730 2.389638 -1.059674
v 4.313730 1.329964 -1.498606
v 4.313730 2.828570 0.000000
v 4.313730 2.389638 1.059674
v 4.313730 1.329964 1.498606
v 5.200979 2.165001 -0.836660
v 5.200979 1.328342 -1.183215
v 5.200979 2.511557 0.000000
v 5.200979 2.165001 0.836660
v 5.200979 1.328342 1.183215
v 5.200979 2.289168 0.967397
v 5.200979 2.289168 -0.967397
v 5.200979 1.329964 -1.368105
v 5.200979 2.683631 0.000000
v 5.200979 1.329964 1.368105
v 4.880129 1.328342 -0.525597
v 4.880129 0.956689 -0.371653
v 4.880129 0.802745 -0.000000
v 4.880129 0.956689 0.371653
v 4.880129 1.328342 0.525597
v 4.880129 1.699994 0.371653
v 4.880129 1.853938 0.000000
v 4.880129 1.699994 -0.371653
v 4.803985 1.328342 -0.418891
v 4.803985 1.032141 -0.296201
v 4.803985 0.909451 -0.000000
v 4.803985 1.032141 0.296201
v 4.803985 1.328342 0.418891
v 4.803985 1.624542 0.296201
v 4.803985 1.747233 0.000000
v 4.803985 1.624542 -0.296201
v 4.803985 1.328342 -0.000000
v 2.006677 1.033843 -1.061230
v 2.006677 0.786181 -0.958645
v 2.620802 1.033843 -1.061230
v 2.620802 0.786181 -0.958645
v 2.006677 1.045062 -1.034145
v 2.006677 0.797400 -0.931560
v 2.620802 1.045062 -1.034145
v 2.620802 0.797400 -0.931560
v -4.335435 1.328342 -1.309309
v -4.335435 2.254163 -0.925821
v -4.335435 2.637651 0.000000
v -4.335435 2.254163 0.925821
v -4.335435 1.328342 1.309309
v -4.335435 0.402520 0.925821
v -4.335435 0.019033 -0.000000
v -4.335435 0.402520 -0.925821
v -5.089231 1.328342 -1.309309
v -5.089231 2.254163 -0.925821
v -5.089231 2.637651 0.000000
v -5.089231 2.254163 0.925821
v -5.089231 1.328342 1.309309
v -5.089231 0.402520 0.925821
v -5.089231 0.019033 -0.000000
v -5.089231 0.402520 -0.925821
v -4.351016 1.328342 -0.865272
v -4.351016 1.940181 -0.611840
v -4.351016 2.193614 0.000000
v -4.351016 1.940181 0.611840
v -4.351016 1.328342 0.865272
v -4.351016 0.716502 0.611839
v -4.351016 0.463070 -0.000000
v -4.351016 0.716502 -0.611840
v -5.073650 1.328342 -0.865272
v -5.073650 1.940181 -0.611840
v -5.073650 2.193614 0.000000
v -5.073650 1.940181 0.611840
v -5.073650 1.328342 0.865272
v -5.073650 0.716502 0.611839
v -5.073650 0.463070 -0.000000
v -5.073650 0.716502 -0.611840
v -4.880129 1.328342 -0.865272
v -4.880129 1.940181 -0.611840
v -4.880129 2.193614 0.000000
v -4.880129 1.940181 0.611840
v -4.880129 1.328342 0.865272
v -4.880129 0.716502 0.611839
v -4.880129 0.463070 -0.000000
v -4.880129 0.716502 -0.611840
v -1.276410 1.328342 -1.183215
v -1.276410 1.328342 1.183215
v -1.276410 0.491682 0.836659
v -1.276410 0.328123 -0.000000
v -1.276410 0.491682 -0.836659
v -3.351069 1.328342 -1.183215
v -3.351069 1.328342 1.183215
v -3.351069 0.491682 0.836659
v -3.351069 0.145126 -0.000000
v -3.351069 0.491682 -0.836659
v -3.573572 1.328342 -1.183215
v -3.573572 2.165001 -0.836660
v -3.573572 2.511557 0.000000
v -3.573572 2.165001 0.836660
v -3.573572 1.328342 1.183215
v -3.617095 0.491682 0.836659
v -3.617095 0.145126 -0.000000
v -3.617095 0.491682 -0.836659
v -4.313730 1.328342 -1.183215
v -4.313730 2.165001 -0.836660
v -4.313730 2.511557 0.000000
v -4.313730 2.165001 0.836660
v -4.313730 1.328342 1.183215
v -4.270207 0.491682 0.836659
v -4.270207 0.145126 -0.000000
v -4.270207 0.491682 -0.836659
v -0.490099 1.328342 -0.663333
v -0.490099 1.328342 0.663333
v -0.490099 0.810513 0.469047
v -0.490099 0.710699 -0.000000
v -0.490099 0.810513 -0.469047
v -0.239664 1.328342 -0.568796
v -0.239664 1.328342 0.568796
v -0.239664 1.008841 0.402200
v -0.239664 0.909014 -0.000000
v -0.239664 1.008841 -0.402200
v -3.573572 2.254183 -0.938170
v -3.573572 1.329964 -1.326773
v -3.573572 2.665030 0.000000
v -3.573572 2.254183 0.938170
v -3.573572 1.329964 1.326773
v -4.313730 2.389638 -1.059674
v -4.313730 1.329964 -1.498606
v -4.313730 2.828570 0.000000
v -4.313730 2.389638 1.059674
v -4.313730 1.329964 1.498606
v -5.200979 2.165001 -0.836660
v -5.200979 1.328342 -1.183215
v -5.200979 2.511557 0.000000
v -5.200979 2.165001 0.836660
v -5.200979 1.328342 1.183215
v -5.200979 2.289168 0.967397
v -5.200979 2.289168 -0.967397
v -5.200979 1.329964 -1.368105
v -5.200979 2.683631 0.000000
v -5.200979 1.329964 1.368105
v -4.880129 1.328342 -0.525597
v -4.880129 0.956689 -0.371653
v -4.880129 0.802745 -0.000000
v -4.880129 0.956689 0.371653
v -4.880129 1.328342 0.525597
v -4.880129 1.699994 0.371653
v -4.880129 1.853938 0.000000
v -4.880129 1.699994 -0.371653
v -4.803985 1.328342 -0.418891
v -4.803985 1.032141 -0.296201
v -4.803985 0.909451 -0.000000
v -4.803985 1.032141 0.296201
v -4.803985 1.328342 0.418891
v -4.803985 1.624542 0.296201
v -4.803985 1.747233 0.000000
v -4.803985 1.624542 -0.296201
v -4.803985 1.328342 -0.000000
v -2.006677 1.033843 -1.061230
v -2.006677 0.786181 -0.958645
v -2.620802 1.033843 -1.061230
v -2.620802 0.786181 -0.958645
v -2.006677 1.045062 -1.034145
v -2.006677 0.797400 -0.931560
v -2.620802 1.045062 -1.034145
v -2.620802 0.797400 -0.931560
v 1.409309 1.328342 -1.016526
v 1.409309 1.328342 1.016526
v 3.191694 1.328342 -1.016526
v 3.191694 1.328342 1.016526
v 3.382851 1.328342 -1.016526
v 3.382851 1.328342 1.016526
v 0.733772 1.328342 -0.569884
v 0.733772 1.328342 0.569884
v -1.409309 1.328342 -1.016526
v -1.409309 1.328342 1.016526
v -3.191694 1.328342 -1.016526
v -3.191694 1.328342 1.016526
v -3.382851 1.328342 -1.016526
v -3.382851 1.328342 1.016526
v -0.733772 1.328342 -0.569884
v -0.733772 1.328342 0.569884
v 3.573572 1.328342 0.000000
v 3.573572 2.165001 0.000000
v 0.490099 1.328342 0.000000
v 0.239664 1.328342 0.000000
v -3.573572 1.328342 0.000000
v -3.573572 2.165001 0.000000
v -0.490099 1.328342 0.000000
v -0.239664 1.328342 0.000000
v 1.409309 1.328342 0.000000
v 3.191694 1.328342 0.000000
v 3.382851 1.328342 0.000000
v 0.733772 1.328342 0.000000
v -1.409309 1.328342 0.000000
v -3.191694 1.328342 0.000000
v -3.382851 1.328342 0.000000
v -0.733772 1.328342 0.000000
vn -0.0421 -0.9557 -0.2913
vn 0.0000 -0.3827 0.9239
vn 0.0000 -0.3827 -0.9239
vn -0.0421 -0.9557 0.2913
vn 0.0000 1.0000 0.0000
vn 0.0000 -0.9239 -0.3827
vn 0.0000 -0.9239 0.3827
vn -1.0000 0.0000 0.0000
vn -0.0008 -1.0000 -0.0071
vn 0.1461 0.9150 -0.3762
vn -0.4352 -0.8825 -0.1780
vn -0.5140 -0.3181 0.7966
vn -0.5140 -0.3181 -0.7966
vn -0.4352 -0.8825 0.1780
vn -0.2130 0.8991 0.3824
vn -0.2131 0.3761 -0.9017
vn -0.2131 0.3761 0.9017
vn -0.2130 0.8991 -0.3824
vn -0.0008 -1.0000 0.0071
vn 1.0000 0.0000 0.0000
vn 0.1461 0.9150 0.3762
vn 0.0005 -1.0000 0.0065
vn 0.1364 0.3804 0.9147
vn 0.0005 -1.0000 -0.0065
vn 0.1364 0.3804 -0.9147
vn 0.9986 -0.0519 0.0000
vn 0.0421 -0.9557 -0.2913
vn 0.0421 -0.9557 0.2913
vn 0.0008 -1.0000 -0.0071
vn -0.1461 0.9150 -0.3762
vn 0.4352 -0.8825 -0.1780
vn 0.5140 -0.3181 0.7966
vn 0.5140 -0.3181 -0.7966
vn 0.4352 -0.8825 0.1780
vn 0.2130 0.8991 0.3824
vn 0.2131 0.3761 -0.9017
vn 0.2131 0.3761 0.9017
vn 0.2130 0.8991 -0.3824
vn 0.0008 -1.0000 0.0071
vn -0.1461 0.9150 0.3762
vn -0.0005 -1.0000 0.0065
vn -0.1364 0.3804 0.9147
vn -0.0005 -1.0000 -0.0065
vn -0.1364 0.3804 -0.9147
vn -0.9986 -0.0519 0.0000
vn 0.0000 0.3827 -0.9239
vn 0.0000 0.3827 0.9239
vn 0.0000 0.9239 -0.3827
vn 0.0000 0.9239 0.3827
vn 0.9993 -0.0351 -0.0145
vn -0.9993 -0.0145 -0.0351
vn 0.9993 -0.0145 -0.0351
vn -0.9993 0.0145 -0.0351
vn 0.9993 0.0145 -0.0351
vn -0.9993 0.0351 -0.0145
vn 0.9993 0.0351 -0.0145
vn -0.9993 0.0351 0.0145
vn 0.9993 0.0351 0.0145
vn -0.9993 0.0145 0.0351
vn -0.9993 -0.0145 0.0351
vn 0.9993 0.0145 0.0351
vn 0.9993 -0.0145 0.0351
vn -0.9993 -0.0351 0.0145
vn 0.9993 -0.0351 0.0145
vn -0.9993 -0.0351 -0.0145
vn -0.4123 -0.3606 0.8366
vn -0.4123 -0.3606 -0.8366
vn -0.6255 -0.7605 0.1743
vn -0.6255 -0.7605 -0.1743
vn 0.7914 -0.2339 -0.5647
vn 0.7914 -0.5647 0.2339
vn 0.7914 0.5647 0.2339
vn 0.7914 0.2339 -0.5647
vn 0.7914 -0.5648 -0.2339
vn 0.7914 -0.2339 0.5647
vn 0.7914 0.2339 0.5647
vn 0.7914 0.5647 -0.2339
vn 0.4123 -0.3606 0.8366
vn 0.4123 -0.3606 -0.8366
vn 0.6255 -0.7605 0.1743
vn 0.6255 -0.7605 -0.1743
vn -0.7914 -0.2339 -0.5647
vn -0.7914 -0.5647 0.2339
vn -0.7914 0.5647 0.2339
vn -0.7914 0.2339 -0.5647
vn -0.7914 -0.5648 -0.2339
vn -0.7914 -0.2339 0.5647
vn -0.7914 0.2339 0.5647
vn -0.7914 0.5647 -0.2339
vn 0.0000 -0.4623 0.8867
vn 0.0000 -0.9706 0.2409
vn 0.0000 -0.9706 -0.2409
vn 0.0000 -0.4623 -0.8867
usemtl F44336
s off
f 45//1 50//1 49//1 44//1
f 43//2 48//2 47//2 42//2
f 45//3 41//3 114//3 115//3
f 44//4 49//4 48//4 43//4
f 261//5 68//5 250//5 270//5
f 50//3 46//3 51//3 58//3
f 49//6 50//6 58//6 57//6
f 48//7 49//7 57//7 56//7
f 47//2 48//2 56//2 55//2
f 163//5 189//5 258//5 252//5
f 260//8 259//8 55//8 54//8
f 53//8 52//8 260//8 54//8
f 58//6 66//6 65//6 57//6
f 56//2 64//2 63//2 55//2
f 59//9 51//9 78//9 83//9
f 61//7 60//7 87//7 89//7
f 51//3 59//3 66//3 58//3
f 57//7 65//7 64//7 56//7
f 82//10 84//10 95//10 93//10
f 52//8 53//8 79//8 77//8
f 44//11 70//11 71//11 45//11
f 42//12 68//12 69//12 43//12
f 45//13 71//13 67//13 41//13
f 43//14 69//14 70//14 44//14
f 68//5 42//5 244//5 250//5
f 79//15 80//15 85//15 84//15
f 78//16 77//16 82//16 83//16
f 80//17 81//17 86//17 85//17
f 77//18 79//18 84//18 82//18
f 53//8 54//8 80//8 79//8
f 55//19 63//19 86//19 81//19
f 60//2 59//2 88//2 87//2
f 54//8 55//8 81//8 80//8
f 51//8 52//8 77//8 78//8
f 63//3 62//3 90//3 91//3
f 87//20 88//20 94//20 93//20
f 91//20 90//20 92//20 96//20
f 89//20 87//20 93//20 95//20
f 90//20 89//20 95//20 92//20
f 84//21 85//21 92//21 95//21
f 86//22 63//22 91//22 96//22
f 62//6 61//6 89//6 90//6
f 85//23 86//23 96//23 92//23
f 59//24 83//24 94//24 88//24
f 83//25 82//25 93//25 94//25
f 65//20 66//20 64//20
f 64//26 66//26 59//26 63//26
f 60//20 62//20 63//20 59//20
f 61//20 62//20 60//20
f 50//3 45//3 115//3 117//3
f 46//3 50//3 117//3 116//3
f 41//3 46//3 116//3 114//3
f 166//27 165//27 170//27 171//27
f 164//2 163//2 168//2 169//2
f 166//3 236//3 235//3 162//3
f 165//28 164//28 169//28 170//28
f 167//5 172//5 255//5 253//5
f 171//3 179//3 172//3 167//3
f 170//6 178//6 179//6 171//6
f 169//7 177//7 178//7 170//7
f 168//2 176//2 177//2 169//2
f 51//5 46//5 245//5 247//5
f 264//20 175//20 176//20 263//20
f 174//20 175//20 264//20 173//20
f 179//6 178//6 186//6 187//6
f 177//2 176//2 184//2 185//2
f 180//29 204//29 199//29 172//29
f 182//7 210//7 208//7 181//7
f 172//3 179//3 187//3 180//3
f 178//7 177//7 185//7 186//7
f 203//30 214//30 216//30 205//30
f 173//20 198//20 200//20 174//20
f 165//31 166//31 192//31 191//31
f 163//32 164//32 190//32 189//32
f 166//33 162//33 188//33 192//33
f 164//34 165//34 191//34 190//34
f 162//5 167//5 253//5 251//5
f 200//35 205//35 206//35 201//35
f 199//36 204//36 203//36 198//36
f 201//37 206//37 207//37 202//37
f 198//38 203//38 205//38 200//38
f 174//20 200//20 201//20 175//20
f 176//39 202//39 207//39 184//39
f 181//2 208//2 209//2 180//2
f 175//20 201//20 202//20 176//20
f 172//20 199//20 198//20 173//20
f 184//3 212//3 211//3 183//3
f 208//8 214//8 215//8 209//8
f 212//8 217//8 213//8 211//8
f 210//8 216//8 214//8 208//8
f 211//8 213//8 216//8 210//8
f 205//40 216//40 213//40 206//40
f 207//41 217//41 212//41 184//41
f 183//6 211//6 210//6 182//6
f 206//42 213//42 217//42 207//42
f 180//43 209//43 215//43 204//43
f 204//44 215//44 214//44 203//44
f 186//8 185//8 187//8
f 185//45 184//45 180//45 187//45
f 181//8 180//8 184//8 183//8
f 182//8 181//8 183//8
f 171//3 238//3 236//3 166//3
f 167//3 237//3 238//3 171//3
f 162//3 235//3 237//3 167//3
f 265//5 188//5 257//5 274//5
f 41//5 67//5 249//5 243//5
f 188//5 162//5 251//5 257//5
f 42//5 47//5 246//5 244//5
f 47//5 55//5 248//5 246//5
f 168//5 163//5 252//5 254//5
f 176//5 168//5 254//5 256//5
f 259//5 51//5 247//5 269//5
f 263//5 176//5 256//5 273//5
f 46//5 41//5 243//5 245//5
f 172//5 263//5 273//5 255//5
f 55//5 259//5 269//5 248//5
f 189//5 265//5 274//5 258//5
f 173//20 264//20 263//20 172//20
f 52//8 51//8 259//8 260//8
f 67//5 261//5 270//5 249//5
usemtl 1A1A1A
f 2//46 10//46 9//46 1//46
f 1//3 9//3 16//3 8//3
f 7//7 15//7 14//7 6//7
f 5//47 13//47 12//47 4//47
f 3//48 11//48 10//48 2//48
f 8//6 16//6 15//6 7//6
f 6//2 14//2 13//2 5//2
f 4//49 12//49 11//49 3//49
f 28//3 29//3 37//3 36//3
f 30//48 31//48 39//48 38//48
f 32//47 25//47 33//47 40//47
f 25//2 26//2 34//2 33//2
f 27//6 28//6 36//6 35//6
f 29//46 30//46 38//46 37//46
f 31//49 32//49 40//49 39//49
f 26//7 27//7 35//7 34//7
f 11//50 12//50 28//50 27//50
f 5//51 4//51 20//51 21//51
f 12//52 13//52 29//52 28//52
f 6//53 5//53 21//53 22//53
f 13//54 14//54 30//54 29//54
f 7//55 6//55 22//55 23//55
f 14//56 15//56 31//56 30//56
f 8//57 7//57 23//57 24//57
f 15//58 16//58 32//58 31//58
f 1//59 8//59 24//59 17//59
f 2//60 1//60 17//60 18//60
f 16//61 9//61 25//61 32//61
f 9//62 10//62 26//62 25//62
f 3//63 2//63 18//63 19//63
f 10//64 11//64 27//64 26//64
f 4//65 3//65 19//65 20//65
f 123//46 122//46 130//46 131//46
f 122//3 129//3 137//3 130//3
f 128//7 127//7 135//7 136//7
f 126//47 125//47 133//47 134//47
f 124//48 123//48 131//48 132//48
f 129//6 128//6 136//6 137//6
f 127//2 126//2 134//2 135//2
f 125//49 124//49 132//49 133//49
f 149//3 157//3 158//3 150//3
f 151//48 159//48 160//48 152//48
f 153//47 161//47 154//47 146//47
f 146//2 154//2 155//2 147//2
f 148//6 156//6 157//6 149//6
f 150//46 158//46 159//46 151//46
f 152//49 160//49 161//49 153//49
f 147//7 155//7 156//7 148//7
f 132//65 148//65 149//65 133//65
f 126//52 142//52 141//52 125//52
f 133//51 149//51 150//51 134//51
f 127//54 143//54 142//54 126//54
f 134//53 150//53 151//53 135//53
f 128//56 144//56 143//56 127//56
f 135//55 151//55 152//55 136//55
f 129//58 145//58 144//58 128//58
f 136//57 152//57 153//57 137//57
f 122//61 138//61 145//61 129//61
f 123//62 139//62 138//62 122//62
f 137//59 153//59 146//59 130//59
f 130//60 146//60 147//60 131//60
f 124//64 140//64 139//64 123//64
f 131//63 147//63 148//63 132//63
f 125//50 141//50 140//50 124//50
f 267//5 244//5 246//5 268//5
f 268//5 269//5 247//5 245//5
f 267//5 243//5 249//5 270//5
f 271//5 272//5 254//5 252//5
f 272//5 253//5 255//5 273//5
f 271//5 274//5 257//5 251//5
f 252//5 258//5 274//5 271//5
f 254//5 272//5 273//5 256//5
f 251//5 253//5 272//5 271//5
f 244//5 267//5 270//5 250//5
f 246//5 248//5 269//5 268//5
f 243//5 267//5 268//5 245//5
usemtl 455A64
f 40//20 33//20 97//20 98//20
f 38//20 39//20 99//20 100//20
f 36//20 37//20 101//20 102//20
f 34//20 35//20 103//20 104//20
f 39//20 40//20 98//20 99//20
f 37//20 38//20 100//20 101//20
f 35//20 36//20 102//20 103//20
f 33//20 34//20 104//20 97//20
f 68//66 73//66 74//66 69//66
f 71//67 76//67 72//67 67//67
f 69//68 74//68 75//68 70//68
f 261//5 67//5 72//5 262//5
f 70//69 75//69 76//69 71//69
f 102//70 101//70 109//70 110//70
f 104//71 103//71 111//71 112//71
f 99//72 98//72 106//72 107//72
f 101//73 100//73 108//73 109//73
f 103//74 102//74 110//74 111//74
f 97//75 104//75 112//75 105//75
f 98//76 97//76 105//76 106//76
f 100//77 99//77 107//77 108//77
f 110//20 109//20 113//20
f 108//20 107//20 113//20
f 106//20 105//20 113//20
f 105//20 112//20 113//20
f 111//20 110//20 113//20
f 109//20 108//20 113//20
f 107//20 106//20 113//20
f 112//20 111//20 113//20
f 114//7 116//7 120//7 118//7
f 116//8 117//8 121//8 120//8
f 117//48 115//48 119//48 121//48
f 115//20 114//20 118//20 119//20
f 161//8 219//8 218//8 154//8
f 159//8 221//8 220//8 160//8
f 157//8 223//8 222//8 158//8
f 155//8 225//8 224//8 156//8
f 160//8 220//8 219//8 161//8
f 158//8 222//8 221//8 159//8
f 156//8 224//8 223//8 157//8
f 154//8 218//8 225//8 155//8
f 189//78 190//78 195//78 194//78
f 192//79 188//79 193//79 197//79
f 190//80 191//80 196//80 195//80
f 265//5 266//5 193//5 188//5
f 191//81 192//81 197//81 196//81
f 223//82 231//82 230//82 222//82
f 225//83 233//83 232//83 224//83
f 220//84 228//84 227//84 219//84
f 222//85 230//85 229//85 221//85
f 224//86 232//86 231//86 223//86
f 218//87 226//87 233//87 225//87
f 219//88 227//88 226//88 218//88
f 221//89 229//89 228//89 220//89
f 231//8 234//8 230//8
f 229//8 234//8 228//8
f 227//8 234//8 226//8
f 226//8 234//8 233//8
f 232//8 234//8 231//8
f 230//8 234//8 229//8
f 228//8 234//8 227//8
f 233//8 234//8 232//8
f 235//7 239//7 241//7 237//7
f 237//20 241//20 242//20 238//20
f 238//48 242//48 240//48 236//48
f 236//8 240//8 239//8 235//8
f 73//90 194//90 195//90 74//90
f 74//91 195//91 196//91 75//91
f 75//92 196//92 197//92 76//92
f 76//93 197//93 193//93 72//93
f 262//5 266//5 194//5 73//5
f 72//5 193//5 266//5 262//5
f 189//5 194//5 266//5 265//5
f 68//5 261//5 262//5 73//5
usemtl DD9944
f 118//3 120//3 121//3 119//3
f 239//3 240//3 242//3 241//3
